<svg width="1694" height="510" xmlns="http://www.w3.org/2000/svg" style="vector-effect: non-scaling-stroke;" stroke="null">

 <g stroke="null">
  <title stroke="null">background</title>
  <rect stroke="null" fill="none" id="canvas_background" height="512" width="1696" y="-1" x="-1"/>
 </g>
 <g stroke="null">
  <title stroke="null">Layer 1</title>
  <g stroke="null" id="svg_1">
   <g stroke="null" id="svg_2">
    <path stroke="null" id="svg_3" fill="#030104" d="m753.500003,192.499996c-51.946956,0 -94.05001,42.659303 -94.05001,95.250007c0,52.609754 42.103055,95.250007 94.05001,95.250007c51.934416,0 94.05001,-42.640253 94.05001,-95.250007c0,-52.590704 -42.115595,-95.250007 -94.05001,-95.250007zm250.800027,-95.250007l-75.240008,0c-10.345501,0 -21.493562,-8.128001 -24.760233,-18.072101l-19.449542,-59.112154c-3.27921,-9.937751 -14.414732,-18.065751 -24.760233,-18.065751l-213.180023,0c-10.345501,0 -21.493562,8.128001 -24.760233,18.072101l-19.449542,59.112154c-3.27921,9.937751 -14.414732,18.065751 -24.760233,18.065751l-75.240008,0c-34.485004,0 -62.700007,28.575002 -62.700007,63.500004l0,285.75002c0,34.925002 28.215003,63.500004 62.700007,63.500004l501.600054,0c34.485004,0 62.700007,-28.575002 62.700007,-63.500004l0,-285.75002c0,-34.925002 -28.215003,-63.500004 -62.700007,-63.500004zm-250.800027,349.250024c-86.569899,0 -156.750017,-71.075555 -156.750017,-158.750011c0,-87.668106 70.180118,-158.750011 156.750017,-158.750011c86.557359,0 156.750017,71.081905 156.750017,158.750011c0,87.674456 -70.192658,158.750011 -156.750017,158.750011zm228.855025,-241.344467c-12.113641,0 -21.945002,-9.944101 -21.945002,-22.225002c0,-12.268201 9.831361,-22.225002 21.945002,-22.225002c12.126181,0 21.945002,9.956801 21.945002,22.225002c0,12.280901 -9.825091,22.225002 -21.945002,22.225002z"/>
   </g>
  </g>
  <g stroke="null" id="svg_4"/>
  <g stroke="null" id="svg_5"/>
  <g stroke="null" id="svg_6"/>
  <g stroke="null" id="svg_7"/>
  <g stroke="null" id="svg_8"/>
  <g stroke="null" id="svg_9"/>
  <g stroke="null" id="svg_10"/>
  <g stroke="null" id="svg_11"/>
  <g stroke="null" id="svg_12"/>
  <g stroke="null" id="svg_13"/>
  <g stroke="null" id="svg_14"/>
  <g stroke="null" id="svg_15"/>
  <g stroke="null" id="svg_16"/>
  <g stroke="null" id="svg_17"/>
  <g stroke="null" id="svg_18"/>
  <path stroke="#000" id="svg_20" d="m1387.367656,125.042449c125.456251,-298.681158 616.997954,0 0,384.018632c-616.997954,-384.018632 -125.456251,-682.69979 0,-384.018632z" stroke-width="1.5" fill="#000000"/>
  <g stroke="null" id="svg_47">
   <g stroke="null" transform="matrix(1.3410799852806425,0,0,0.9376349866166414,-17303.31657672357,-5481.540917792141) " id="svg_26">
    <g stroke="null" id="svg_27">
     <path stroke="null" id="svg_28" d="m12965.567616,6043.163932l0,310.136c0,8.086 2.95,15.08 8.862,20.986c5.808,5.809 12.681,8.732 20.6,8.824c7.914,-0.092 14.792,-3.016 20.606,-8.824c5.906,-5.906 8.855,-12.9 8.855,-20.986l0,-310.136c8.862,-3.103 42.081,-32.711 42.081,-42.204l0,-124.737c0,-4.033 -1.481,-7.534 -4.431,-10.49c-2.956,-2.95 -6.457,-4.431 -10.49,-4.431c-4.045,0 -7.54,1.481 -10.49,4.431c-2.956,2.962 -4.431,6.457 -4.431,10.49l0,96.99c0,4.045 -1.481,7.54 -4.431,10.49c-2.956,2.956 -6.451,4.425 -10.49,4.425c-4.045,0 -7.54,-1.469 -10.49,-4.425c-2.95,-2.95 -4.431,-6.451 -4.431,-10.49l0,-96.99c0,-4.033 -1.481,-7.534 -4.431,-10.49c-2.95,-2.95 -6.45,-4.431 -10.489,-4.431c-4.045,0 -7.54,1.481 -10.49,4.431c-2.956,2.962 -4.431,6.457 -4.431,10.49l0,96.99c0,4.045 -1.481,7.54 -4.431,10.49c-2.956,2.956 -6.451,4.425 -10.49,4.425c-4.045,0 -7.54,-1.469 -10.49,-4.425c-2.956,-2.95 -4.431,-6.451 -4.431,-10.49l0,-96.99c0,-4.033 -1.475,-7.534 -4.431,-10.49c-2.95,-2.95 -6.45,-4.431 -10.49,-4.431c-4.045,0 -7.54,1.481 -10.489,4.431c-2.95,2.962 -4.431,6.457 -4.431,10.49l0,124.732c0.003,9.491 39.342,39.1 48.204,42.209z"/>
     <path stroke="null" id="svg_29" d="m12995.408616,6383.141932c-0.129,0 -0.251,-0.037 -0.38,-0.037c-0.128,0 -0.245,0.037 -0.379,0.037l0.759,0z"/>
     <path stroke="null" id="svg_30" d="m13185.948616,6389.262932c-0.129,0 -0.25,-0.037 -0.379,-0.037s-0.252,0.037 -0.379,0.037l0.758,0z"/>
     <path stroke="null" id="svg_31" d="m13122.239616,6117.649932l33.869,0l0,241.771c0,8.084 2.949,15.08 8.855,20.984c5.812,5.809 12.686,8.734 20.605,8.826c7.912,-0.092 14.791,-3.018 20.605,-8.826c5.906,-5.904 8.861,-12.9 8.861,-20.984l0,-495.438c0,-4.033 -1.48,-7.534 -4.43,-10.49c-2.955,-2.95 -6.449,-4.431 -10.488,-4.431l-10.723,0c-20.52,0 -38.084,7.308 -52.693,21.916c-14.607,14.614 -21.914,32.179 -21.914,52.693l0,186.52c0,2.02 0.74,3.77 2.215,5.245c1.468,1.474 3.218,2.214 5.238,2.214z"/>
    </g>
   </g>
   <g stroke="null" transform="matrix(1.3410799852806425,0,0,0.9376349866166414,-17303.31657672357,-5481.540917792141) " id="svg_32"/>
   <g stroke="null" transform="matrix(1.3410799852806425,0,0,0.9376349866166414,-17303.31657672357,-5481.540917792141) " id="svg_33"/>
   <g stroke="null" transform="matrix(1.3410799852806425,0,0,0.9376349866166414,-17303.31657672357,-5481.540917792141) " id="svg_34"/>
   <g stroke="null" transform="matrix(1.3410799852806425,0,0,0.9376349866166414,-17303.31657672357,-5481.540917792141) " id="svg_35"/>
   <g stroke="null" transform="matrix(1.3410799852806425,0,0,0.9376349866166414,-17303.31657672357,-5481.540917792141) " id="svg_36"/>
   <g stroke="null" transform="matrix(1.3410799852806425,0,0,0.9376349866166414,-17303.31657672357,-5481.540917792141) " id="svg_37"/>
   <g stroke="null" transform="matrix(1.3410799852806425,0,0,0.9376349866166414,-17303.31657672357,-5481.540917792141) " id="svg_38"/>
   <g stroke="null" transform="matrix(1.3410799852806425,0,0,0.9376349866166414,-17303.31657672357,-5481.540917792141) " id="svg_39"/>
   <g stroke="null" transform="matrix(1.3410799852806425,0,0,0.9376349866166414,-17303.31657672357,-5481.540917792141) " id="svg_40"/>
   <g stroke="null" transform="matrix(1.3410799852806425,0,0,0.9376349866166414,-17303.31657672357,-5481.540917792141) " id="svg_41"/>
   <g stroke="null" transform="matrix(1.3410799852806425,0,0,0.9376349866166414,-17303.31657672357,-5481.540917792141) " id="svg_42"/>
   <g stroke="null" transform="matrix(1.3410799852806425,0,0,0.9376349866166414,-17303.31657672357,-5481.540917792141) " id="svg_43"/>
   <g stroke="null" transform="matrix(1.3410799852806425,0,0,0.9376349866166414,-17303.31657672357,-5481.540917792141) " id="svg_44"/>
   <g stroke="null" transform="matrix(1.3410799852806425,0,0,0.9376349866166414,-17303.31657672357,-5481.540917792141) " id="svg_45"/>
   <g stroke="null" transform="matrix(1.3410799852806425,0,0,0.9376349866166414,-17303.31657672357,-5481.540917792141) " id="svg_46"/>
  </g>
  <ellipse stroke="#000" ry="62.500004" rx="58.999998" id="svg_48" cy="442.999996" cx="1157.999998" stroke-opacity="null" stroke-width="1.5" fill="#000000"/>
 </g>
</svg>