<?xml version="1.0" encoding="iso-8859-1"?>
<!-- Generator: Adobe Illustrator 19.0.0, SVG Export Plug-In . SVG Version: 6.00 Build 0)  -->
<svg version="1.1" id="Layer_1" xmlns="http://www.w3.org/2000/svg" xmlns:xlink="http://www.w3.org/1999/xlink" x="0px" y="0px"
	 viewBox="0 0 512 512" style="enable-background:new 0 0 512 512;" xml:space="preserve">
<g>
	<path style="fill:#FEE187;" d="M400.132,361.842c-65.578,17.89-134.2,9.171-193.226-24.548
		c-50.728-28.984-95.828-73.068-111.175-129.323c-15.35-56.269,7.234-83.46,8.348-84.757
		c43.581,146.854,197.292,232.979,345.813,192.463c12.636-3.447,25.085-7.779,37.075-12.899l3.704,13.578
		C464.217,337.196,433.599,352.714,400.132,361.842z"/>
	
		<rect x="23.03" y="51.417" transform="matrix(0.9647 -0.2632 0.2632 0.9647 -21.2986 18.4368)" style="fill:#FEE187;" width="70.263" height="74.587"/>
</g>
<path style="fill:#FFC61B;" d="M511.49,337.767l-10.582-38.791c-0.137-0.504-0.301-0.997-0.49-1.478
	c-1.322-3.367-3.868-6.137-7.16-7.728c-1.882-0.909-3.912-1.39-5.952-1.438c-2.042-0.048-4.092,0.337-6.013,1.156
	c-2.844,1.214-5.718,2.383-8.614,3.503c-8.691,3.361-17.601,6.292-26.59,8.746c-2.626,0.717-5.262,1.38-7.902,2.016
	c-0.763,0.184-1.525,0.354-2.288,0.532c-1.967,0.455-3.936,0.89-5.912,1.301c-0.77,0.16-1.542,0.322-2.312,0.475
	c-2.376,0.473-4.754,0.918-7.137,1.325c-0.28,0.048-0.559,0.104-0.84,0.15c-2.714,0.455-5.434,0.864-8.158,1.236
	c-0.591,0.081-1.181,0.15-1.772,0.225c-2.13,0.276-4.262,0.527-6.397,0.753c-0.753,0.079-1.507,0.158-2.26,0.231
	c-2.246,0.218-4.494,0.406-6.743,0.566c-0.465,0.033-0.929,0.077-1.395,0.107c-2.66,0.176-5.324,0.306-7.987,0.402
	c-0.707,0.026-1.412,0.036-2.118,0.056c-2.001,0.056-4.004,0.091-6.007,0.101c-1.056,0.006-2.111,0.012-3.166,0.004
	c-0.737-0.004-1.473-0.012-2.208-0.023c-1.355-0.02-2.708-0.055-4.061-0.095c-0.73-0.022-1.461-0.04-2.191-0.068
	c-1.409-0.055-2.815-0.127-4.22-0.204c-0.66-0.036-1.322-0.062-1.981-0.104c-1.883-0.117-3.763-0.256-5.64-0.412
	c-1.231-0.103-2.458-0.225-3.685-0.345c-0.686-0.066-1.373-0.13-2.058-0.201c-1.431-0.152-2.858-0.316-4.283-0.491
	c-0.396-0.048-0.793-0.095-1.189-0.146c-100.483-12.751-187.357-82.351-220.713-179.024c-0.118-0.347-0.238-0.692-0.355-1.039
	c-0.477-1.402-0.944-2.808-1.397-4.221c-0.189-0.59-0.371-1.182-0.558-1.775c-0.413-1.319-0.828-2.639-1.223-3.967
	c0-0.001-0.001-0.003-0.001-0.006c-0.572-1.926-1.132-3.857-1.663-5.805l-0.454-1.66c0-0.001,0-0.003-0.001-0.004L96.183,39.67
	c-1.009-3.698-3.445-6.843-6.773-8.744c-3.329-1.902-7.277-2.403-10.973-1.395L10.648,48.024c-3.698,1.009-6.843,3.445-8.744,6.773
	c-1.9,3.328-2.403,7.275-1.395,10.973l19.632,71.96c1.753,6.428,7.577,10.652,13.934,10.652c1.259,0,2.539-0.166,3.812-0.513
	l43.507-11.869c-5.514,16.247-8.988,41.382,0.396,75.778c14.727,53.991,56.616,103.023,117.948,138.067
	c40.692,23.247,86.688,35.535,133.013,35.535c23.902,0,47.85-3.227,71.184-9.592c27.652-7.543,53.452-19.172,76.987-34.633
	c-32.067,51.398-81.613,88.317-140.352,104.341c-61.854,16.873-126.58,8.65-182.253-23.153
	c-47.848-27.338-85.088-70.656-104.86-121.971c-7.275-18.88-12.145-38.734-14.475-59.009c-0.912-7.929-8.093-13.611-16.006-12.705
	c-7.929,0.91-13.619,8.078-12.707,16.007c2.61,22.701,8.066,44.939,16.22,66.1c22.155,57.506,63.88,106.045,117.492,136.675
	c41.194,23.532,86.798,35.542,132.99,35.541c23.754-0.001,47.671-3.179,71.205-9.6c68.694-18.74,126.182-62.976,161.876-124.558
	C511.989,345.474,512.508,341.494,511.49,337.767z M32.196,72.103l39.906-10.886l12.023,44.077L44.22,116.18L32.196,72.103z
	 M396.328,347.902c-20.854,5.689-42.244,8.574-63.577,8.574c-41.305,0-82.343-10.971-118.677-31.728
	c-54.629-31.212-91.705-74.033-104.402-120.578c-4.087-14.98-5.198-27.458-4.762-37.574c0.48,1.052,0.996,2.082,1.487,3.129
	c0.225,0.475,0.451,0.951,0.678,1.426c17.269,36.204,41.627,68.314,72.085,94.916c1.107,0.97,2.217,1.934,3.338,2.886
	c0.895,0.759,1.793,1.514,2.698,2.263c1.636,1.357,3.288,2.694,4.951,4.014c0.506,0.402,1.003,0.809,1.512,1.208
	c2.308,1.809,4.642,3.584,7,5.322c0.084,0.062,0.165,0.127,0.249,0.189c1.052,0.775,2.116,1.529,3.178,2.289
	c1.408,1.007,2.825,2,4.249,2.983c0.829,0.572,1.656,1.15,2.491,1.712c1.225,0.827,2.461,1.636,3.698,2.445
	c0.473,0.309,0.944,0.62,1.419,0.926c1.462,0.944,2.934,1.873,4.412,2.79c0.127,0.078,0.253,0.158,0.38,0.236
	c42.661,26.425,91.875,42.107,143.145,44.476c0.701,0.033,1.402,0.074,2.103,0.101c1.058,0.04,2.117,0.068,3.176,0.097
	c1.254,0.036,2.509,0.068,3.763,0.088c0.929,0.014,1.858,0.023,2.789,0.029c0.59,0.003,1.178,0.017,1.767,0.017
	c0.626,0,1.25-0.019,1.876-0.023c1.327-0.009,2.655-0.023,3.984-0.049c1.108-0.022,2.217-0.053,3.325-0.088
	c1.351-0.042,2.704-0.091,4.056-0.152c1.079-0.049,2.158-0.105,3.237-0.166c1.384-0.078,2.77-0.162,4.158-0.259
	c1.043-0.074,2.087-0.156,3.129-0.24c1.419-0.114,2.837-0.236,4.257-0.371c1.019-0.097,2.036-0.204,3.053-0.312
	c1.434-0.152,2.866-0.309,4.301-0.483c1.014-0.123,2.029-0.256,3.043-0.389c1.426-0.186,2.853-0.379,4.28-0.587
	c1.035-0.15,2.068-0.314,3.101-0.475c1.396-0.218,2.792-0.441,4.186-0.681c1.082-0.185,2.162-0.384,3.243-0.581
	c1.34-0.246,2.679-0.491,4.019-0.756c0.353-0.069,0.708-0.129,1.061-0.199C421.794,339.832,409.288,344.367,396.328,347.902z"/>
<g>
</g>
<g>
</g>
<g>
</g>
<g>
</g>
<g>
</g>
<g>
</g>
<g>
</g>
<g>
</g>
<g>
</g>
<g>
</g>
<g>
</g>
<g>
</g>
<g>
</g>
<g>
</g>
<g>
</g>
</svg>
