<svg width="640" height="480" xmlns="http://www.w3.org/2000/svg">

 <g>
  <title>background</title>
  <rect fill="none" id="canvas_background" height="482" width="642" y="-1" x="-1"/>
 </g>
 <g>
  <title>Layer 1</title>
  <g stroke="null" id="svg_1">
   <g stroke="null" id="svg_2">
    <path stroke="null" id="svg_3" fill="#030104" d="m315.500006,276.499994c-33.388553,0 -60.450006,26.536102 -60.450006,59.250005c0,32.725753 27.061452,59.250005 60.450006,59.250005c33.380493,0 60.450006,-26.524252 60.450006,-59.250005c0,-32.713903 -27.069512,-59.250005 -60.450006,-59.250005zm161.200015,-59.250005l-48.360004,0c-6.649501,0 -13.814841,-5.056 -15.914471,-11.241701l-12.501061,-36.770553c-2.10769,-6.181751 -9.264971,-11.237751 -15.914471,-11.237751l-137.020013,0c-6.649501,0 -13.814841,5.056 -15.914471,11.241701l-12.501061,36.770553c-2.10769,6.181751 -9.264971,11.237751 -15.914471,11.237751l-48.360004,0c-22.165002,0 -40.300004,17.775002 -40.300004,39.500004l0,177.750016c0,21.725002 18.135002,39.500004 40.300004,39.500004l322.40003,0c22.165002,0 40.300004,-17.775002 40.300004,-39.500004l0,-177.750016c0,-21.725002 -18.135002,-39.500004 -40.300004,-39.500004zm-161.200015,217.250019c-55.642215,0 -100.750009,-44.212354 -100.750009,-98.750009c0,-54.533705 45.107794,-98.750009 100.750009,-98.750009c55.634155,0 100.750009,44.216304 100.750009,98.750009c0,54.537655 -45.115854,98.750009 -100.750009,98.750009zm147.095013,-150.127663c-7.785961,0 -14.105001,-6.185701 -14.105001,-13.825001c0,-7.631401 6.319041,-13.825001 14.105001,-13.825001c7.794021,0 14.105001,6.193601 14.105001,13.825001c0,7.639301 -6.315011,13.825001 -14.105001,13.825001z"/>
   </g>
  </g>
  <g id="svg_4"/>
  <g id="svg_5"/>
  <g id="svg_6"/>
  <g id="svg_7"/>
  <g id="svg_8"/>
  <g id="svg_9"/>
  <g id="svg_10"/>
  <g id="svg_11"/>
  <g id="svg_12"/>
  <g id="svg_13"/>
  <g id="svg_14"/>
  <g id="svg_15"/>
  <g id="svg_16"/>
  <g id="svg_17"/>
  <g id="svg_18"/>
  <text font-weight="bold" xml:space="preserve" text-anchor="start" font-family="Helvetica, Arial, sans-serif" font-size="101" id="svg_19" y="116.5" x="9" stroke-width="0" stroke="#000" fill="#000000">Click To Add</text>
 </g>
</svg>